<?xml version="1.0" encoding="iso-8859-1"?>
<!-- Uploaded to: SVG Repo, www.svgrepo.com, Generator: SVG Repo Mixer Tools -->
<svg height="800px" width="800px" version="1.1" id="Layer_1" xmlns="http://www.w3.org/2000/svg" xmlns:xlink="http://www.w3.org/1999/xlink" 
	 viewBox="0 0 512 512" xml:space="preserve">
<circle style="fill:#573024;" cx="318.699" cy="200.268" r="193.301"/>
<path style="fill:#83432D;" d="M256.011,383.188c-75.994-26.035-130.623-98.096-130.623-182.917
	c0-84.818,54.627-156.877,130.618-182.914L256.011,383.188z"/>
<circle style="fill:#AF6A3A;" cx="193.301" cy="311.731" r="193.301"/>
<circle style="fill:#8E572E;" cx="193.301" cy="311.731" r="193.301"/>
<path style="fill:#AF6A3A;" d="M256.001,494.639c-19.66,6.737-40.751,10.393-62.695,10.393C86.546,505.034,0,418.487,0,311.727
	s86.546-193.306,193.306-193.306c21.946,0,43.038,3.657,62.699,10.396L256.001,494.639z"/>
<g>
	<circle style="fill:#83432D;" cx="344.71" cy="95.144" r="26.011"/>
	<circle style="fill:#83432D;" cx="443.277" cy="185.812" r="26.011"/>
	<circle style="fill:#83432D;" cx="193.301" cy="300.176" r="26.011"/>
	<circle style="fill:#83432D;" cx="165.099" cy="408.751" r="26.011"/>
	<circle style="fill:#83432D;" cx="173.861" cy="211.822" r="26.011"/>
	<circle style="fill:#83432D;" cx="88.984" cy="282.01" r="26.011"/>
</g>
<circle style="fill:#573024;" cx="310.157" cy="300.176" r="26.011"/>
</svg>