<?xml version="1.0" encoding="iso-8859-1"?>
<!-- Uploaded to: SVG Repo, www.svgrepo.com, Generator: SVG Repo Mixer Tools -->
<svg version="1.1" id="Layer_1" xmlns="http://www.w3.org/2000/svg" xmlns:xlink="http://www.w3.org/1999/xlink" 
	 viewBox="0 0 512.006 512.006" xml:space="preserve">
<rect x="296.851" y="427.475" style="fill:#DFDFE0;" width="98.605" height="84.53"/>
<rect x="346.148" y="427.475" style="fill:#CECED1;" width="49.308" height="84.53"/>
<polygon style="fill:#DC90CC;" points="422.438,448.637 269.865,448.637 237.654,16.696 454.649,16.696 "/>
<g>
	<polygon style="fill:#C0369E;" points="422.438,448.637 346.152,448.637 346.152,16.696 454.649,16.696 	"/>
	<polygon style="fill:#C0369E;" points="432.82,309.426 446.485,126.179 245.818,126.179 259.483,309.426 	"/>
</g>
<polygon style="fill:#8B2975;" points="432.82,309.426 446.485,126.179 346.152,126.179 346.152,309.426 "/>
<rect x="41.386" y="24.469" style="fill:#E7C64B;" width="81.72" height="146.12"/>
<g>
	<rect x="41.386" y="146.243" style="fill:#DE9846;" width="81.72" height="24.354"/>
	<rect x="41.386" y="97.536" style="fill:#DE9846;" width="81.72" height="24.355"/>
	<rect x="41.386" y="48.824" style="fill:#DE9846;" width="81.72" height="24.355"/>
</g>
<path style="fill:#92E0D3;" d="M136.354,512L136.354,512c13.939,0,25.238-11.3,25.238-25.238V25.238
	C161.592,11.3,150.293,0,136.354,0l0,0c-13.939,0-25.238,11.3-25.238,25.238v461.523C111.116,500.7,122.415,512,136.354,512z"/>
<path style="fill:#6DB2A6;" d="M136.354,512L136.354,512c13.939,0,25.238-11.3,25.238-25.238V25.238
	C161.592,11.3,150.293,0,136.354,0l0,0C136.354,11.13,136.354,478.238,136.354,512z"/>
<rect x="225.75" style="fill:#8B2975;" width="244.87" height="44.522"/>
<rect x="346.148" style="fill:#5C1D4E;" width="124.472" height="44.522"/>
</svg>